<svg width="106" height="27" viewBox="0 0 106 27" fill="none" xmlns="http://www.w3.org/2000/svg">
<path d="M11.8509 12.5C11.7997 11.8608 11.56 11.3622 11.1317 11.0043C10.7099 10.6463 10.0675 10.4673 9.20455 10.4673C8.65483 10.4673 8.20419 10.5344 7.85263 10.6687C7.50746 10.7965 7.25178 10.9723 7.08558 11.196C6.91939 11.4197 6.8331 11.6754 6.8267 11.9631C6.81392 12.1996 6.85547 12.4137 6.95135 12.6055C7.05362 12.7908 7.21342 12.9602 7.43075 13.1136C7.64808 13.2607 7.92614 13.3949 8.26492 13.5163C8.60369 13.6378 9.00639 13.7464 9.47301 13.8423L11.0838 14.1875C12.1705 14.4176 13.1005 14.7212 13.8739 15.0984C14.6474 15.4755 15.2802 15.9197 15.7724 16.4311C16.2646 16.9361 16.6257 17.505 16.8558 18.1378C17.0923 18.7706 17.2138 19.4609 17.2202 20.2088C17.2138 21.5 16.891 22.593 16.2518 23.4879C15.6126 24.3828 14.6985 25.0636 13.5096 25.5302C12.3271 25.9968 10.9048 26.2301 9.2429 26.2301C7.53622 26.2301 6.04688 25.9776 4.77486 25.4727C3.50923 24.9677 2.52486 24.1911 1.82173 23.1428C1.125 22.0881 0.773438 20.7393 0.767045 19.0966H5.82955C5.86151 19.6974 6.01172 20.2024 6.28018 20.6115C6.54865 21.0206 6.92578 21.3306 7.41158 21.5415C7.90376 21.7525 8.48864 21.858 9.16619 21.858C9.73509 21.858 10.2113 21.7876 10.5948 21.647C10.9783 21.5064 11.2692 21.3114 11.4673 21.0621C11.6655 20.8129 11.7678 20.5284 11.7741 20.2088C11.7678 19.9084 11.6687 19.6463 11.4769 19.4226C11.2915 19.1925 10.9847 18.9879 10.5565 18.8089C10.1282 18.6236 9.54972 18.451 8.82102 18.2912L6.86506 17.8693C5.12642 17.4922 3.75533 16.8626 2.75178 15.9805C1.75462 15.092 1.25923 13.8807 1.26562 12.3466C1.25923 11.1001 1.59162 10.0103 2.26278 9.07706C2.94034 8.13743 3.87678 7.40554 5.07209 6.88139C6.27379 6.35724 7.65128 6.09517 9.20455 6.09517C10.7898 6.09517 12.1609 6.36044 13.3178 6.89098C14.4748 7.42152 15.3665 8.16939 15.9929 9.13459C16.6257 10.0934 16.9453 11.2152 16.9517 12.5H11.8509Z" fill="black"/>
<path d="M101.226 25.5537C102.417 25.0863 103.364 24.3906 104.033 23.4531C104.709 22.5069 105.035 21.3685 105.042 20.0712L105.042 20.0631C105.035 19.309 104.913 18.6005 104.667 17.9431C104.424 17.275 104.043 16.6775 103.532 16.1529C103.019 15.6198 102.372 15.1704 101.606 14.797C100.835 14.4212 99.9254 14.1264 98.8844 13.906C98.8843 13.9059 98.8842 13.9059 98.8842 13.9059L97.3941 13.5866L97.3891 13.5856C96.9765 13.5008 96.6323 13.4071 96.3522 13.3066C96.0727 13.2064 95.8657 13.1037 95.7184 13.0049C95.5828 12.9083 95.5069 12.8205 95.4649 12.7488C95.4306 12.6758 95.4107 12.5857 95.4172 12.4656L95.4177 12.4561L95.4179 12.4466C95.4212 12.3002 95.4622 12.1848 95.5394 12.0808C95.605 11.9925 95.7315 11.8881 95.9764 11.7974L95.982 11.7953C96.2155 11.7061 96.5532 11.6483 97.0198 11.6483C97.7522 11.6483 98.1802 11.8028 98.416 12.003L98.4195 12.0058C98.6737 12.2184 98.8354 12.521 98.872 12.9782L98.9162 13.5304H99.4701H104.193H104.796L104.793 12.9274C104.787 11.6366 104.464 10.4818 103.808 9.48609C103.159 8.48772 102.241 7.72466 101.078 7.19147C99.912 6.65655 98.5533 6.4 97.0198 6.4C95.5141 6.4 94.1546 6.65418 92.9536 7.17802L92.9525 7.17849C91.7603 7.70129 90.8033 8.44249 90.1056 9.41008L90.1051 9.41069C89.404 10.3857 89.063 11.5198 89.0689 12.7881C89.0629 14.3512 89.5749 15.6468 90.6459 16.601L90.6489 16.6037C91.676 17.5065 93.0487 18.1244 94.7264 18.4884L94.7271 18.4885L96.5362 18.8787C96.5365 18.8788 96.5368 18.8788 96.5371 18.8789C97.1932 19.0228 97.6868 19.1727 98.0332 19.3227L98.0402 19.3256C98.3922 19.4727 98.5735 19.6134 98.6566 19.7166L98.6623 19.7237L98.6683 19.7307C98.7511 19.8273 98.7937 19.9324 98.7988 20.0688C98.7933 20.2281 98.744 20.3607 98.6453 20.485C98.5473 20.6083 98.381 20.7337 98.1005 20.8365C97.832 20.935 97.4662 20.9952 96.9843 20.9952C96.418 20.9952 95.961 20.9069 95.5971 20.7512C95.2461 20.5985 94.9926 20.3844 94.8137 20.1119C94.6353 19.8401 94.5192 19.481 94.4939 19.0065L94.4637 18.4384H93.8948H89.2073H88.605L88.6073 19.0407C88.6135 20.644 88.957 22.0162 89.6832 23.1155L89.6856 23.119C90.4094 24.1982 91.421 24.9907 92.6959 25.4994L92.6969 25.4998C93.9601 26.0013 95.4173 26.2435 97.0553 26.2435C98.6473 26.2435 100.043 26.0204 101.226 25.5537ZM101.226 25.5537C101.226 25.5536 101.226 25.5536 101.226 25.5535L101.006 24.9954L101.225 25.5539C101.225 25.5538 101.225 25.5538 101.226 25.5537ZM39.3315 7.24858V6.64858H38.7315H33.7955H33.1955V7.24858V15.0233L27.6867 6.9115L27.5082 6.64858H27.1903H23H22.4V7.24858V25.4304V26.0304H23H27.9361H28.5361V25.4304V17.6542L34.1178 25.7704L34.2967 26.0304H34.6122H38.7315H39.3315V25.4304V7.24858ZM42.4664 25.4304V26.0304H43.0664H56.1346H56.7346V25.4304V21.4531V20.8531H56.1346H48.6025V18.9281H55.4954H56.0954V18.3281V14.3509V13.7509H55.4954H48.6025V11.8259H56.1701H56.7701V11.2259V7.24858V6.64858H56.1701H43.0664H42.4664V7.24858V25.4304ZM64.6591 25.6001L64.786 26.0304H65.2346H69.9577H70.4023L70.5317 25.605L73.1182 17.1023L75.7046 25.605L75.834 26.0304H76.2787H81.0017H81.4503L81.5772 25.6001L86.9394 7.41831L87.1664 6.64858H86.3639H80.8596H80.378L80.2738 7.11881L78.2593 16.213L75.8647 7.09616L75.7471 6.64858H75.2844H70.952H70.4896L70.3718 7.0957L67.977 16.1842L65.9624 7.11842L65.858 6.64858H65.3767H59.8724H59.0699L59.2969 7.41831L64.6591 25.6001Z" fill="white" stroke="black" stroke-width="1.2"/>
</svg>
