<svg width="24" height="24" viewBox="0 0 24 24" fill="none" xmlns="http://www.w3.org/2000/svg">
<path d="M12 2.4C9.45392 2.4 7.01212 3.41143 5.21178 5.21178C3.41143 7.01212 2.4 9.45392 2.4 12C2.4 14.5461 3.41143 16.9879 5.21178 18.7882C7.01212 20.5886 9.45392 21.6 12 21.6C14.5461 21.6 16.9879 20.5886 18.7882 18.7882C20.5886 16.9879 21.6 14.5461 21.6 12C21.6 9.45392 20.5886 7.01212 18.7882 5.21178C16.9879 3.41143 14.5461 2.4 12 2.4ZM0 12C0 5.3724 5.3724 0 12 0C18.6276 0 24 5.3724 24 12C24 18.6276 18.6276 24 12 24C5.3724 24 0 18.6276 0 12ZM12 6C12.3183 6 12.6235 6.12643 12.8485 6.35147C13.0736 6.57652 13.2 6.88174 13.2 7.2V10.8H16.8C17.1183 10.8 17.4235 10.9264 17.6485 11.1515C17.8736 11.3765 18 11.6817 18 12C18 12.3183 17.8736 12.6235 17.6485 12.8485C17.4235 13.0736 17.1183 13.2 16.8 13.2H13.2V16.8C13.2 17.1183 13.0736 17.4235 12.8485 17.6485C12.6235 17.8736 12.3183 18 12 18C11.6817 18 11.3765 17.8736 11.1515 17.6485C10.9264 17.4235 10.8 17.1183 10.8 16.8V13.2H7.2C6.88174 13.2 6.57652 13.0736 6.35147 12.8485C6.12643 12.6235 6 12.3183 6 12C6 11.6817 6.12643 11.3765 6.35147 11.1515C6.57652 10.9264 6.88174 10.8 7.2 10.8H10.8V7.2C10.8 6.88174 10.9264 6.57652 11.1515 6.35147C11.3765 6.12643 11.6817 6 12 6Z" fill="#A9A9A9"/>
</svg>
