<svg width="25" height="25" viewBox="0 0 25 25" fill="none" xmlns="http://www.w3.org/2000/svg">
<path d="M24.916 12.6814C24.916 10.2616 24.1985 7.89621 22.8541 5.88424C21.5098 3.87227 19.599 2.30413 17.3634 1.37813C15.1278 0.452117 12.6678 0.209832 10.2946 0.681906C7.92129 1.15398 5.74129 2.31921 4.03026 4.03025C2.31922 5.74129 1.15398 7.92129 0.681909 10.2946C0.209834 12.6678 0.452119 15.1278 1.37813 17.3634C2.30413 19.599 3.87227 21.5098 5.88424 22.8541C7.89621 24.1985 10.2616 24.916 12.6814 24.916C14.2881 24.916 15.879 24.5996 17.3634 23.9847C18.8478 23.3699 20.1965 22.4687 21.3326 21.3326C23.627 19.0382 24.916 15.9262 24.916 12.6814ZM10.4058 17.196L6.90669 13.5256C6.85491 13.4725 6.81343 13.4103 6.78435 13.3421C6.73239 13.2845 6.69098 13.2183 6.662 13.1463C6.59727 12.9999 6.56384 12.8415 6.56384 12.6814C6.56384 12.5213 6.59727 12.363 6.662 12.2165C6.72023 12.0663 6.80754 11.9291 6.91893 11.8128L10.5893 8.14238C10.8197 7.912 11.1322 7.78257 11.458 7.78257C11.7838 7.78257 12.0962 7.912 12.3266 8.14238C12.557 8.37277 12.6864 8.68523 12.6864 9.01104C12.6864 9.33685 12.557 9.64931 12.3266 9.8797L10.7361 11.458L17.5753 11.458C17.8997 11.458 18.2109 11.5869 18.4404 11.8163C18.6698 12.0457 18.7987 12.3569 18.7987 12.6814C18.7987 13.0059 18.6698 13.3171 18.4404 13.5465C18.2109 13.776 17.8997 13.9049 17.5753 13.9049L10.6505 13.9049L12.1798 15.5076C12.4037 15.7429 12.525 16.0574 12.5169 16.3821C12.5089 16.7067 12.3722 17.0149 12.137 17.2388C11.9017 17.4627 11.5872 17.584 11.2625 17.5759C10.9379 17.5679 10.6297 17.4312 10.4058 17.196Z" fill="#231F20"/>
</svg>
